<svg width="151" height="151" viewBox="0 0 151 151" fill="none" xmlns="http://www.w3.org/2000/svg">
<mask id="mask0_159_367" style="mask-type:alpha" maskUnits="userSpaceOnUse" x="0" y="0" width="151" height="151">
<rect width="151" height="151" rx="5" fill="#557EFF"/>
</mask>
<g mask="url(#mask0_159_367)">
<path d="M47.7794 119.541C43.7126 119.541 41.3469 114.944 43.7108 111.635L67.446 78.4059C68.6877 76.6674 68.6877 74.332 67.446 72.5935L43.7108 39.3642C41.3469 36.0549 43.7126 31.458 47.7794 31.458H50.905C52.5197 31.458 54.0351 32.2378 54.9736 33.5518L82.8605 72.5935C84.1023 74.332 84.1023 76.6674 82.8605 78.4059L54.9736 117.448C54.0351 118.762 52.5197 119.541 50.905 119.541H47.7794ZM85.2148 119.541C81.148 119.541 78.7824 114.944 81.1462 111.635L104.881 78.4059C106.123 76.6674 106.123 74.332 104.881 72.5935L81.1462 39.3642C78.7824 36.0549 81.148 31.458 85.2148 31.458H88.3404C89.9551 31.458 91.4705 32.2378 92.4091 33.5518L120.296 72.5935C121.538 74.332 121.538 76.6674 120.296 78.4059L92.4091 117.448C91.4705 118.762 89.9551 119.541 88.3404 119.541H85.2148Z" fill="#557EFF"/>
</g>
</svg>
