<svg width="353" height="215" viewBox="0 0 353 215" fill="none" xmlns="http://www.w3.org/2000/svg">
<path d="M61.3438 24.0938V26.6328H47.2422V33.7422H44.1562V26.6328H29.5469V24.0938H61.3438ZM33.1406 14.3281C33.1211 10.0117 37.9844 7.35547 45.4062 7.33594C52.8281 7.35547 57.6328 10.0117 57.6328 14.3281C57.6328 18.6055 52.8281 21.2617 45.4062 21.2422C37.9844 21.2617 33.1211 18.6055 33.1406 14.3281ZM33.6484 40.4219V30.2656H36.7344V37.8047H57.7891V40.4219H33.6484ZM36.4219 14.3281C36.3828 17.0234 39.9961 18.7422 45.4062 18.7422C50.7969 18.7422 54.3906 17.0234 54.3906 14.3281C54.3906 11.5547 50.7969 9.85547 45.4062 9.83594C39.9961 9.85547 36.3828 11.5547 36.4219 14.3281ZM81.4609 18.5859V23.7031H95.7969V26.2031H64.1562V23.7031H78.4531V18.5859H81.4609ZM66.0703 17.9609C72.2031 17.1211 78.4141 13.2539 78.4141 8.625V6.98438H81.5V8.625C81.5 13.2539 87.75 17.1211 93.8828 17.9609L92.6328 20.4219C87.3789 19.5039 82.1445 16.7109 79.9766 12.707C77.7891 16.75 72.5742 19.5039 67.2422 20.4219L66.0703 17.9609ZM67.9844 35.1094C67.9648 31.2617 72.4375 29.1133 79.9766 29.0938C87.4375 29.1133 91.8906 31.2617 91.9297 35.1094C91.8906 38.9766 87.4375 41.0859 79.9766 41.0859C72.4375 41.0859 67.9648 38.9766 67.9844 35.1094ZM71.1094 35.1094C71.0703 37.3945 74.3516 38.7227 79.9766 38.7031C85.543 38.7227 88.8242 37.3945 88.8438 35.1094C88.8242 32.8047 85.543 31.5156 79.9766 31.5156C74.3516 31.5156 71.0703 32.8047 71.1094 35.1094ZM110.484 13.0391C110.504 17.5898 113.902 21.6523 119 23.3125L117.555 25.7344C113.551 24.4062 110.523 21.6523 109.02 18.1562C107.535 22.1406 104.332 25.2461 100.172 26.75L98.6094 24.2891C103.805 22.5312 107.438 18.0586 107.477 13.0391V11.5547H99.5469V9.01562H118.297V11.5547H110.484V13.0391ZM103.219 34.6797C103.238 30.6758 107.594 28.3516 114.742 28.3516C121.871 28.3516 126.188 30.6758 126.188 34.6797C126.188 38.7422 121.871 41.0859 114.742 41.0859C107.594 41.0859 103.238 38.7422 103.219 34.6797ZM106.305 34.6797C106.266 37.1797 109.508 38.6445 114.742 38.625C119.996 38.6445 123.199 37.1797 123.219 34.6797C123.199 32.2578 119.996 30.8125 114.742 30.8125C109.508 30.8125 106.266 32.2578 106.305 34.6797ZM122.828 27.4141V6.4375H125.875V15.3047H131.109V17.8828H125.875V27.4141H122.828ZM172.125 6.47656V32.1797H169.039V18.8203H160.836V26.2422H145.094V8.78125H148.141V14.9531H157.828V8.78125H160.836V16.2422H169.039V6.47656H172.125ZM148.141 23.7031H157.828V17.375H148.141V23.7031ZM149.664 40.4219V29.6406H152.75V37.8438H172.906V40.4219H149.664ZM207.906 11.5938V14.1328H179.469V11.5938H192.203V7.02344H195.211V11.5938H207.906ZM177.906 37.1016V34.5625H192.203V29.6797C186.012 29.3477 182.281 26.9453 182.32 23.0391C182.281 18.918 186.637 16.4766 193.727 16.5156C200.719 16.4766 205.152 18.918 205.133 23.0391C205.152 26.9453 201.344 29.3477 195.211 29.6797V34.5625H209.703V37.1016H177.906ZM185.406 23.0391C185.367 25.6758 188.551 27.1992 193.727 27.2188C198.844 27.1992 202.027 25.6758 202.008 23.0391C202.027 20.4609 198.844 18.9375 193.727 18.9375C188.551 18.9375 185.367 20.4609 185.406 23.0391ZM244.234 22.5703V24.9922H212.438V22.5703H244.234ZM216.266 30.0703V27.7656H240.25V35.1484H219.391V38.4688H241.383V40.6953H216.305V33.0391H237.203V30.0703H216.266ZM216.461 9.71875V7.49219H240.133V14.6797H219.625V17.7266H240.758V19.9531H216.578V12.5703H237.047V9.71875H216.461ZM284.234 6.4375V14.8359H289.469V17.4141H284.234V26.75H281.188V6.4375H284.234ZM258.57 24.5625V8.42969H261.578V13.7422H271.695V8.42969H274.742V24.5625H258.57ZM261.578 22.1016H271.695V16.2031H261.578V22.1016ZM262.438 40.6953V28.7031H284.508V31.1641H265.484V38.1953H285.172V40.6953H262.438ZM300.953 9.13281C306.07 9.15234 309.703 13.8594 309.742 21.2422C309.703 28.6445 306.07 33.332 300.953 33.3125C295.797 33.332 292.184 28.6445 292.203 21.2422C292.184 13.8594 295.797 9.15234 300.953 9.13281ZM295.094 21.2422C295.113 26.8867 297.516 30.5977 300.953 30.5781C304.43 30.5977 306.773 26.8867 306.773 21.2422C306.773 15.5977 304.43 11.8867 300.953 11.8672C297.516 11.8867 295.113 15.5977 295.094 21.2422ZM315.484 41.1641V6.4375H318.531V20.3047H324.352V22.9609H318.531V41.1641H315.484Z" fill="#557EFF"/>
<mask id="mask0_328_22" style="mask-type:alpha" maskUnits="userSpaceOnUse" x="90" y="61" width="154" height="154">
<rect x="90" y="61" width="153.471" height="153.471" fill="#557EFF"/>
</mask>
<g mask="url(#mask0_328_22)">
<path d="M127.789 195.103C124.272 195.103 121.261 193.851 118.757 191.346C116.252 188.842 115 185.831 115 182.314V92.7892C115 89.2722 116.252 86.2614 118.757 83.7568C121.261 81.2523 124.272 80 127.789 80H230.103C233.62 80 236.631 81.2523 239.135 83.7568C241.64 86.2614 242.892 89.2722 242.892 92.7892V182.314C242.892 185.831 241.64 188.842 239.135 191.346C236.631 193.851 233.62 195.103 230.103 195.103H127.789ZM127.789 182.314H230.103V92.7892H127.789V182.314ZM159.762 169.525C161.574 169.525 163.093 168.912 164.318 167.686C165.544 166.46 166.157 164.942 166.157 163.13C166.157 161.318 165.544 159.799 164.318 158.574C163.093 157.348 161.574 156.735 159.762 156.735H140.578C138.767 156.735 137.248 157.348 136.022 158.574C134.797 159.799 134.184 161.318 134.184 163.13C134.184 164.942 134.797 166.46 136.022 167.686C137.248 168.912 138.767 169.525 140.578 169.525H159.762ZM195.252 138.671L190.616 134.034C189.337 132.756 187.845 132.143 186.14 132.196C184.435 132.249 182.943 132.915 181.664 134.194C180.491 135.473 179.879 136.965 179.825 138.671C179.772 140.376 180.385 141.868 181.664 143.147L190.776 152.259C192.055 153.538 193.547 154.178 195.252 154.178C196.958 154.178 198.45 153.538 199.729 152.259L222.429 129.558C223.708 128.279 224.348 126.787 224.348 125.082C224.348 123.377 223.708 121.885 222.429 120.606C221.151 119.327 219.632 118.687 217.873 118.687C216.115 118.687 214.596 119.327 213.317 120.606L195.252 138.671ZM159.762 143.946C161.574 143.946 163.093 143.333 164.318 142.108C165.544 140.882 166.157 139.363 166.157 137.552C166.157 135.74 165.544 134.221 164.318 132.995C163.093 131.77 161.574 131.157 159.762 131.157H140.578C138.767 131.157 137.248 131.77 136.022 132.995C134.797 134.221 134.184 135.74 134.184 137.552C134.184 139.363 134.797 140.882 136.022 142.108C137.248 143.333 138.767 143.946 140.578 143.946H159.762ZM159.762 118.368C161.574 118.368 163.093 117.755 164.318 116.529C165.544 115.304 166.157 113.785 166.157 111.973C166.157 110.161 165.544 108.643 164.318 107.417C163.093 106.191 161.574 105.578 159.762 105.578H140.578C138.767 105.578 137.248 106.191 136.022 107.417C134.797 108.643 134.184 110.161 134.184 111.973C134.184 113.785 134.797 115.304 136.022 116.529C137.248 117.755 138.767 118.368 140.578 118.368H159.762Z" fill="#557EFF"/>
</g>
</svg>
