<svg width="394" height="211" viewBox="0 0 394 211" fill="none" xmlns="http://www.w3.org/2000/svg">
<path d="M47.2734 24.8359V27.3359H33.1328V34.1328H30.0859V27.3359H15.4766V24.8359H47.2734ZM19.5391 40.4219V30.9297H22.5859V37.8438H43.7188V40.4219H19.5391ZM19.7344 21.4375V7.57031H22.7812V12.0234H39.9688V7.57031H43.0156V21.4375H19.7344ZM22.7812 18.9375H39.9688V14.3672H22.7812V18.9375ZM81.8438 27.1797V29.6406H73.4844V41.1641H70.4375V29.6406H61.4531V41.1641H58.3672V29.6406H50.0469V27.1797H81.8438ZM53.875 10.3438V7.80469H77.9766V16.7109H57.0391V21.0469H78.7188V23.5859H53.9531V14.3281H74.8516V10.3438H53.875ZM104.852 17.8438V20.3438H97.8203V25.1875C101.062 25.0508 104.305 24.8164 107.312 24.4844L107.547 26.75C100.066 27.7852 91.8047 28 85.2812 28L84.8125 25.5C87.8594 25.4805 91.2773 25.4414 94.7734 25.3242V20.3438H87.9766V8.70312H104.578V11.2422H91.0625V17.8438H104.852ZM90.75 40.4219V30.6562H93.7969V37.8438H114.422V40.4219H90.75ZM110.203 32.4531V6.47656H113.289V32.4531H110.203ZM144.305 8.97656V11.5547H133.758V15.8906H143.914V18.3125H133.758V23.1172C138.816 23.0977 141.98 22.9023 145.711 22.1797L146.023 24.7188C141.941 25.5195 138.66 25.6758 133.016 25.6953H130.828V8.97656H144.305ZM135.359 31.8281V29.3281H158.758V41.1641H155.75V31.8281H135.359ZM148.094 27.2969V7.14062H150.945V15.5391H155.828V6.47656H158.758V27.5312H155.828V18.0391H150.945V27.2969H148.094ZM168.055 9.75781V18.2344H175.594V9.75781H178.445V32.4922H165.125V9.75781H168.055ZM168.055 29.9531H175.594V20.7344H168.055V29.9531ZM182.859 39.4062V7.17969H185.789V20.2266H190.633V6.4375H193.602V41.1641H190.633V22.7656H185.789V39.4062H182.859ZM230.164 22.5703V24.9922H198.367V22.5703H230.164ZM202.195 30.0703V27.7656H226.18V35.1484H205.32V38.4688H227.312V40.6953H202.234V33.0391H223.133V30.0703H202.195ZM202.391 9.71875V7.49219H226.062V14.6797H205.555V17.7266H226.688V19.9531H202.508V12.5703H222.977V9.71875H202.391ZM260.438 9.67969C260.457 14.582 266.824 18.8008 273.094 19.6797L271.844 22.1797C266.453 21.2812 261.102 18.293 258.875 14.0352C256.648 18.332 251.316 21.2812 245.906 22.1797L244.656 19.6797C250.926 18.8008 257.273 14.6602 257.273 9.67969V7.6875H260.438V9.67969ZM243.016 28.5859V26.0078H274.656V28.5859H260.281V41.1641H257.273V28.5859H243.016ZM294.07 8.42969V18.1562H282.117V23.4688C288.641 23.4688 292.02 23.332 296.102 22.5703L296.414 25.1094C292.098 25.8711 288.562 26.0078 281.531 25.9688H279.07V15.6953H291.023V10.9688H278.992V8.42969H294.07ZM283.211 34.9922C283.191 30.9297 287.625 28.5469 294.891 28.5469C302.117 28.5469 306.512 30.9297 306.492 34.9922C306.512 39.0547 302.117 41.3789 294.891 41.3594C287.625 41.3789 283.191 39.0547 283.211 34.9922ZM286.336 34.9922C286.297 37.5117 289.52 38.9375 294.891 38.9375C300.184 38.9375 303.504 37.5117 303.484 34.9922C303.504 32.4531 300.184 30.9883 294.891 30.9688C289.52 30.9883 286.297 32.4531 286.336 34.9922ZM296.414 21.5547V18.9766H303.289V14.4453H296.414V11.9453H303.289V6.47656H306.375V27.9609H303.289V21.5547H296.414ZM329.5 12.4531V14.9531H312.078V12.4531H319.305V7.49219H322.352V12.4531H329.5ZM313.328 25.1875C313.328 20.5781 316.473 17.3164 320.789 17.2969C325.164 17.3164 328.289 20.5781 328.328 25.1875C328.289 29.8555 325.164 33.1367 320.789 33.1562C316.473 33.1367 313.328 29.8555 313.328 25.1875ZM316.062 25.1875C316.062 28.2734 318.035 30.4805 320.789 30.4609C323.562 30.4805 325.594 28.2734 325.594 25.1875C325.594 22.1406 323.562 19.9141 320.789 19.875C318.035 19.9141 316.062 22.1406 316.062 25.1875ZM331.297 39.4453V7.29688H334.188V21.0859H338.797V6.4375H341.727V41.1641H338.797V23.625H334.188V39.4453H331.297ZM378.523 34.1328V36.7109H346.727V34.1328H354.617V24.7773C351.648 23.2344 349.852 20.7344 349.852 17.5703C349.852 12.1992 355.125 8.66406 362.547 8.625C369.969 8.66406 375.242 12.1992 375.242 17.5703C375.242 20.6758 373.504 23.1367 370.633 24.6797V34.1328H378.523ZM352.82 17.5703C352.801 21.457 356.844 24.0547 362.547 24.0547C368.191 24.0547 372.273 21.457 372.273 17.5703C372.273 13.6836 368.191 11.125 362.547 11.1641C356.844 11.125 352.801 13.6836 352.82 17.5703ZM357.625 34.1328H367.547V25.8711C366.043 26.2617 364.363 26.4766 362.547 26.4766C360.77 26.4766 359.109 26.2812 357.625 25.8906V34.1328Z" fill="#557EFF"/>
<mask id="mask0_328_27" style="mask-type:alpha" maskUnits="userSpaceOnUse" x="120" y="58" width="153" height="153">
<rect x="120" y="58" width="153" height="153" rx="5" fill="#D9D9D9"/>
</mask>
<g mask="url(#mask0_328_27)">
<path d="M151.875 191.875C148.369 191.875 145.367 190.627 142.87 188.13C140.373 185.633 139.125 182.631 139.125 179.125V89.875C139.125 86.3687 140.373 83.3672 142.87 80.8703C145.367 78.3734 148.369 77.125 151.875 77.125H241.125C241.975 77.125 242.772 77.2047 243.516 77.3641C244.615 77.5996 244.882 78.9461 244.087 79.7411L235.418 88.4105C234.48 89.3482 233.208 89.875 231.882 89.875H156.875C154.114 89.875 151.875 92.1136 151.875 94.875V174.125C151.875 176.886 154.114 179.125 156.875 179.125H236.125C238.886 179.125 241.125 176.886 241.125 174.125V138.802C241.125 137.476 241.652 136.204 242.589 135.267L245.339 132.517C248.489 129.367 253.875 131.598 253.875 136.052V179.125C253.875 182.631 252.627 185.633 250.13 188.13C247.633 190.627 244.631 191.875 241.125 191.875H151.875ZM197.007 162.839C195.055 164.792 191.889 164.792 189.936 162.839L160.989 133.892C159.036 131.939 159.036 128.773 160.989 126.821L162.843 124.967C164.795 123.014 167.961 123.014 169.914 124.967L189.936 144.989C191.889 146.942 195.055 146.942 197.007 144.989L248.49 93.5073C250.418 91.5793 253.535 91.5515 255.497 93.4448L257.384 95.2656C259.396 97.2073 259.425 100.422 257.448 102.399L197.007 162.839Z" fill="#557EFF"/>
</g>
</svg>
