<svg width="308" height="214" viewBox="0 0 308 214" fill="none" xmlns="http://www.w3.org/2000/svg">
<path d="M44.4297 8.97656V11.5547H33.8828V15.8906H44.0391V18.3125H33.8828V23.1172C38.9414 23.0977 42.1055 22.9023 45.8359 22.1797L46.1484 24.7188C42.0664 25.5195 38.7852 25.6758 33.1406 25.6953H30.9531V8.97656H44.4297ZM35.4844 31.8281V29.3281H58.8828V41.1641H55.875V31.8281H35.4844ZM48.2188 27.2969V7.14062H51.0703V15.5391H55.9531V6.47656H58.8828V27.5312H55.9531V18.0391H51.0703V27.2969H48.2188ZM68.1797 9.75781V18.2344H75.7188V9.75781H78.5703V32.4922H65.25V9.75781H68.1797ZM68.1797 29.9531H75.7188V20.7344H68.1797V29.9531ZM82.9844 39.4062V7.17969H85.9141V20.2266H90.7578V6.4375H93.7266V41.1641H90.7578V22.7656H85.9141V39.4062H82.9844ZM125.406 6.4375V20.5781H131.031V23.1562H125.406V41.1641H122.359V6.4375H125.406ZM98.7656 32.1406C107.73 27.6875 112.613 20.9883 113.316 12.7656H100.367V10.1875H116.422C116.402 20.0117 111.793 28.9766 100.484 34.5625L98.7656 32.1406ZM174.898 24.8359V27.3359H160.758V34.1328H157.711V27.3359H143.102V24.8359H174.898ZM147.164 40.4219V30.9297H150.211V37.8438H171.344V40.4219H147.164ZM147.359 21.4375V7.57031H150.406V12.0234H167.594V7.57031H170.641V21.4375H147.359ZM150.406 18.9375H167.594V14.3672H150.406V18.9375ZM209.469 27.1797V29.6406H201.109V41.1641H198.062V29.6406H189.078V41.1641H185.992V29.6406H177.672V27.1797H209.469ZM181.5 10.3438V7.80469H205.602V16.7109H184.664V21.0469H206.344V23.5859H181.578V14.3281H202.477V10.3438H181.5ZM232.984 21.4375V23.9766H225.367V30.8125C228.766 30.6758 232.184 30.4414 235.406 30.0703L235.641 32.375C227.945 33.4883 219.547 33.6445 212.906 33.625L212.477 31.0469C215.504 31.0469 218.863 31.0273 222.32 30.9297V23.9766H215.133V9.75781H232.828V12.2578H218.141V21.4375H232.984ZM237.711 41.2422V6.4375H240.758V41.2422H237.711ZM274.703 9.95312V13.4297C274.664 17.6875 274.664 22.4531 273.414 29.4453L270.289 29.0938C271.598 22.4531 271.598 17.5898 271.617 13.4297V12.4922H250.211V9.95312H274.703ZM246.852 36.2422V33.7031H259.273V21.2812H262.281V33.7031H278.492V36.2422H246.852Z" fill="#557EFF"/>
<mask id="mask0_328_26" style="mask-type:alpha" maskUnits="userSpaceOnUse" x="79" y="61" width="153" height="153">
<rect x="232" y="214" width="153" height="153" rx="2" transform="rotate(-180 232 214)" fill="#D9D9D9"/>
</mask>
<g mask="url(#mask0_328_26)">
<path d="M159.875 86.5C160.98 86.5 161.875 87.3954 161.875 88.5V134.122C161.875 134.652 162.086 135.161 162.461 135.536L190.336 163.411C191.596 164.671 193.75 163.778 193.75 161.997V152.25C193.75 151.145 194.645 150.25 195.75 150.25H204.5C205.605 150.25 206.5 151.145 206.5 152.25V186.5C206.5 187.605 205.605 188.5 204.5 188.5H170.25C169.145 188.5 168.25 187.605 168.25 186.5V177.75C168.25 176.645 169.145 175.75 170.25 175.75H179.997C181.778 175.75 182.671 173.596 181.411 172.336L149.711 140.636C149.336 140.261 149.125 139.752 149.125 139.222V88.5C149.125 87.3954 150.02 86.5 151.125 86.5H159.875ZM135.917 147.862C136.696 147.07 137.971 147.065 138.757 147.85L145.15 154.243C145.935 155.029 145.93 156.304 145.138 157.083L129.655 172.325C128.379 173.58 129.268 175.75 131.058 175.75H140.75C141.855 175.75 142.75 176.645 142.75 177.75V186.5C142.75 187.605 141.855 188.5 140.75 188.5H106.5C105.395 188.5 104.5 187.605 104.5 186.5V152.25C104.5 151.145 105.395 150.25 106.5 150.25H115.25C116.355 150.25 117.25 151.145 117.25 152.25V161.942C117.25 163.732 119.42 164.621 120.675 163.345L135.917 147.862Z" fill="#557EFF"/>
</g>
</svg>
