<svg width="174" height="28" viewBox="0 0 174 28" fill="none" xmlns="http://www.w3.org/2000/svg">
<path d="M55.582 13.5156C55.5938 19.1055 52.0664 22.2344 47.5195 22.2344C42.9492 22.2344 39.457 19.082 39.457 13.5156C39.457 7.91406 42.9492 4.79688 47.5195 4.79688C52.0664 4.79688 55.5938 7.91406 55.582 13.5156ZM43.5352 13.5156C43.5352 16.8906 45.0469 18.7188 47.5195 18.7188C50.0039 18.7188 51.5156 16.8906 51.5039 13.5156C51.5156 10.1406 50.0039 8.30078 47.5195 8.3125C45.0469 8.30078 43.5352 10.1406 43.5352 13.5156ZM57.9492 22V5.03125H61.9336V11.875H68.7539V5.03125H72.7383V22H68.7539V15.1328H61.9336V22H57.9492ZM89.707 5.03125V22H86.3086L79.418 12.0391H79.3008V22H75.3164V5.03125H78.7617L85.582 14.9922H85.7227V5.03125H89.707ZM92.2852 22V5.03125H104.027V8.28906H96.2695V11.875H103.418V15.1328H96.2695V18.7422H104.051V22H92.2852ZM117.738 10.5625C117.352 9.14453 116.203 8.30078 114.527 8.3125C112.031 8.30078 110.449 10.1992 110.449 13.4922C110.449 16.8086 111.961 18.7188 114.527 18.7188C116.789 18.7188 118.055 17.5352 118.113 15.6953H114.691V12.7656H121.957V14.9922C121.957 19.5156 118.852 22.2344 114.504 22.2344C109.652 22.2344 106.371 18.9062 106.371 13.5391C106.371 7.99609 109.922 4.79688 114.434 4.79688C118.348 4.79688 121.359 7.17578 121.793 10.5625H117.738ZM127.348 22H123.035L128.801 5.03125H134.098L139.84 22H135.551L134.402 18.3672H128.496L127.348 22ZM129.457 15.3203H133.441L131.52 9.22656H131.379L129.457 15.3203ZM156.035 5.03125V22H152.637L145.746 12.0391H145.629V22H141.645V5.03125H145.09L151.91 14.9922H152.051V5.03125H156.035ZM158.613 22V5.03125H170.355V8.28906H162.598V11.875H169.746V15.1328H162.598V18.7422H170.379V22H158.613Z" fill="#557EFF"/>
<path d="M28 11.4C27.95 9.6957 27.7825 8.6089 27.215 7.682C26.4071 6.3625 24.9533 5.628 22.0471 4.1616L19.345 2.7966C16.9725 1.5993 15.7862 1 14.5108 1C13.2354 1 12.0491 1.598 9.67664 2.7966L6.97448 4.1616C4.0683 5.628 2.61454 6.3625 1.8066 7.682C1 9.0002 1 10.6421 1 13.922V14.0741C1 17.3566 1 18.9985 1.8066 20.3167C2.61454 21.6362 4.0683 22.3707 6.97448 23.8384L9.67664 25.2021C12.0491 26.4007 13.2354 27 14.5108 27C15.7862 27 16.9725 26.402 19.345 25.2034L22.0471 23.8384C24.9533 22.3707 26.4071 21.6375 27.215 20.318C27.7825 19.3911 27.95 18.3043 28 16.6M26.6705 8.15L21.2662 10.75M21.2662 10.75L20.5907 11.075L14.5108 14M21.2662 10.75V15.3M21.2662 10.75L8.43094 4.25M14.5108 14L2.35108 8.15M14.5108 14V26.35" stroke="#557EFF" stroke-width="1.5" stroke-linecap="round"/>
</svg>
